<svg xmlns="http://www.w3.org/2000/svg" width="50.717" color='yellow' height="40" viewBox="0 0 327.812 170.281">
  <defs>
    <style>
      .cls-1 {
        fill-rule: evenodd;
      }
    </style>
  </defs>
  <path id="Forma_2" data-name="Forma 2" class="cls-1" d="M209.851,301.805L203.669,308l-4.563,25.886H175.373l15.733-89.25h23.733l-5.3,30.056h0.246l27.007-30.056h30.172l-38.124,38.153,23.679,51.1H223.207l-13.294-32.081h-0.062Zm91.4,5.4h-0.306L280.3,333.886H252.52l35.89-44.963-18.931-44.287h27.29l10.646,25.886h0.306l19.772-25.886h27.228l-34.544,44.287,20.038,44.963H312.373Zm73.631-41.283H352.2l3.752-21.284h68.991l-3.752,21.284H398.618l-11.98,67.966H362.905ZM445.9,219.558L421.326,358.964H154.411l24.573-139.406H445.9m18.156-15.438H166.271l-2.721,15.438L138.976,358.964,136.255,374.4H434.04l2.721-15.438,24.574-139.406,2.721-15.438h0Z" stroke='#E1D652' fill="#E1D652" transform="translate(-136.25 -204.125)"/>
</svg>
